<svg xmlns="http://www.w3.org/2000/svg" viewBox="0 0 1000 1000">
  <path d="M 768,839
C 768,954 778,977 790,977
C 800,977 818,961 823,937
C 829,906 833,862 834,801
L 845,143
C 845,133 847,118 848,108
C 849,104 849,99 849,98
C 849,87 845,79 831,69
C 808,53 767,33 735,27
C 724,25 695,20 695,35
C 695,39 701,45 707,50
C 730,65 751,82 770,101
Z" />
<path d="M 731,519
C 764,510 758,472 720,482
C 618,509 493,531 368,545
C 321,550 280,554 254,556
C 219,559 151,555 118,550
C 99,547 93,565 106,574
C 134,593 191,620 230,620
C 240,620 254,618 267,613
C 276,610 286,604 298,602
C 337,594 385,589 421,587
C 439,593 445,615 441,635
C 429,697 372,784 302,858
C 285,876 304,901 328,884
C 407,828 481,730 511,655
C 523,625 528,605 507,590
C 498,584 485,579 476,576
C 561,562 662,538 731,519
Z" />

</svg>