<svg xmlns="http://www.w3.org/2000/svg" viewBox="0 0 1000 1000">
  <path d="M 544,161
C 544,149 545,138 548,119
C 549,111 551,99 551,94
C 551,78 546,71 523,59
C 496,45 453,32 423,26
C 405,22 389,20 377,20
C 353,20 338,30 338,41
C 338,51 344,57 355,62
C 379,74 410,92 427,107
L 433,832
C 434,952 446,982 470,982
C 495,982 509,963 519,921
C 529,878 536,812 537,744
L 540,494
L 672,492
C 703,492 716,477 716,455
C 716,436 707,422 682,416
C 669,413 648,410 626,410
C 609,410 598,415 584,424
C 571,432 560,437 544,438
L 540,438
Z" />

</svg>