<svg xmlns="http://www.w3.org/2000/svg" viewBox="0 0 1000 1000">
  <path d="M 222,711
C 168,713 128,709 85,701
C 67,698 63,716 75,725
C 98,743 147,779 197,779
C 207,779 218,778 226,774
C 238,768 250,764 261,762
C 404,738 539,713 669,675
C 702,665 694,627 656,637
C 619,647 576,658 531,667
L 547,618
C 552,603 551,592 537,581
C 521,569 500,557 479,550
C 528,528 559,488 559,435
C 559,353 486,303 386,303
C 287,303 213,353 213,435
C 213,516 287,568 386,568
C 405,568 423,566 439,563
L 452,572
C 463,580 472,588 482,599
L 474,679
C 434,687 393,694 354,699
C 356,692 357,687 358,679
C 360,653 358,644 348,633
C 334,617 322,608 298,596
C 276,585 264,588 260,595
C 258,601 258,608 266,617
C 279,633 286,642 297,660
C 306,675 307,686 307,705
C 276,709 248,711 222,711
Z
M 281,435
C 281,382 319,345 386,345
C 454,345 492,382 492,435
C 492,488 454,525 386,525
C 319,525 281,488 281,435
Z" />
<path d="M 721,839
C 721,954 731,977 743,977
C 753,977 771,961 776,937
C 782,906 786,862 787,801
L 790,592
L 925,594
C 972,595 985,587 985,567
C 985,537 947,532 926,532
C 904,532 887,536 877,544
C 868,551 831,555 791,556
L 794,378
L 925,380
C 972,381 985,373 985,353
C 985,323 947,318 926,318
C 904,318 887,322 877,330
C 868,337 833,341 794,342
L 798,143
C 798,133 800,118 801,108
C 803,87 798,79 784,69
C 761,53 720,33 688,27
C 677,25 648,20 648,35
C 648,39 654,45 661,50
C 683,65 704,82 723,101
Z" />
<path d="M 396,261
C 446,257 525,253 564,253
C 619,253 633,241 633,224
C 633,202 616,194 582,194
C 549,194 530,195 518,203
C 505,211 490,214 473,217
C 429,223 316,229 256,232
C 242,233 229,233 216,233
C 181,233 149,230 122,225
C 107,222 100,234 109,242
C 129,259 174,287 195,287
C 208,287 219,285 228,281
C 238,277 248,275 258,273
C 278,269 313,267 396,261
Z" />
<path d="M 229,97
C 214,91 206,105 214,116
C 232,139 287,182 311,182
C 359,181 419,177 464,172
C 498,168 510,166 510,146
C 510,130 492,119 457,121
C 429,123 373,125 339,125
C 311,125 271,113 229,97
Z" />

</svg>