<svg xmlns="http://www.w3.org/2000/svg" viewBox="0 0 1000 1000">
  <path d="M 275,607
C 250,632 280,662 309,642
C 421,565 493,449 526,329
C 538,340 551,351 562,359
C 572,366 579,368 586,368
C 593,368 599,366 605,363
C 612,359 618,355 626,353
L 627,448
C 609,450 590,451 573,451
C 552,452 532,450 513,447
C 493,444 483,462 498,476
C 512,489 529,504 542,514
C 552,521 559,523 566,523
C 573,523 579,521 585,518
C 592,514 598,510 607,508
L 627,503
L 628,591
C 629,687 638,709 661,709
C 682,709 693,688 702,654
C 712,618 721,564 721,501
L 722,231
C 722,219 723,208 725,189
C 726,181 728,169 728,164
C 728,148 723,140 700,129
C 673,116 651,106 621,99
C 603,95 592,94 580,94
C 556,94 541,103 541,114
C 541,124 547,130 558,135
C 582,146 606,162 625,177
L 626,295
C 615,295 604,296 593,296
C 573,297 555,296 537,293
C 550,279 558,265 558,247
C 558,231 544,223 517,215
L 475,203
L 441,227
C 414,230 395,231 367,231
C 352,231 325,229 309,226
C 286,221 276,246 292,260
C 304,270 320,283 331,290
C 342,297 349,300 358,300
C 367,300 374,297 383,292
C 392,287 401,282 410,280
L 438,275
C 417,402 359,521 275,607
Z" />
<path d="M 878,161
C 878,149 879,138 882,119
C 883,111 885,99 885,94
C 885,78 880,71 857,59
C 830,45 802,32 772,26
C 754,22 738,20 726,20
C 702,20 687,30 687,41
C 687,51 693,57 704,62
C 728,74 759,92 776,107
L 778,640
C 778,736 789,758 812,758
C 833,758 845,737 855,703
C 866,667 872,613 873,550
Z" />
<path d="M 515,769
C 515,756 516,745 517,734
C 518,724 519,714 519,704
C 519,687 513,677 486,672
C 453,666 387,661 351,661
C 320,661 301,674 301,686
C 301,697 309,705 321,708
C 344,714 374,723 392,732
L 395,840
C 397,904 424,935 508,934
L 870,931
C 903,931 918,916 918,894
C 918,875 907,860 880,855
C 866,852 829,849 805,849
C 788,849 768,856 753,864
C 739,872 723,875 707,876
C 659,879 584,880 542,878
C 525,877 515,871 515,850
Z" />
<path d="M 209,344
C 209,336 210,320 211,312
C 212,303 213,292 213,282
C 213,264 206,254 182,250
C 153,245 117,240 82,239
C 52,238 34,251 34,265
C 34,275 42,284 54,286
C 74,290 95,297 110,305
L 111,511
C 111,536 156,582 180,579
C 201,577 218,571 248,558
C 280,544 311,527 335,509
C 356,494 342,455 315,466
C 291,476 257,485 227,489
C 215,491 209,487 209,473
Z" />

</svg>