<?xml version="1.0" encoding="UTF-8" standalone="no"?>
<svg
   viewBox="0 0 1000 1000"
   version="1.1"
   id="svg5"
   sodipodi:docname="B6.svg"
   inkscape:version="1.4 (1:1.4+202410161351+e7c3feb100)"
   xmlns:inkscape="http://www.inkscape.org/namespaces/inkscape"
   xmlns:sodipodi="http://sodipodi.sourceforge.net/DTD/sodipodi-0.dtd"
   xmlns="http://www.w3.org/2000/svg"
   xmlns:svg="http://www.w3.org/2000/svg">
  <path
     d="M 596,445 C 631,435 621,387 585,396 C 523,411 442,423 372,430 C 330,434 269,440 221,442 C 186,443 139,441 89,435 C 66,432 57,457 75,470 C 102,489 134,510 160,525 C 173,532 184,536 196,536 C 209,536 220,532 233,525 C 246,519 261,513 276,510 C 281,520 279,526 273,538 C 252,575 209,628 163,670 C 142,689 166,725 196,709 L 224,694 C 237,699 248,705 260,711 L 266,893 C 267,936 282,954 309,953 C 331,952 354,929 359,910 L 474,907 C 477,932 488,943 507,943 C 547,943 566,884 568,840 L 574,720 C 574,704 576,685 578,664 C 580,648 576,641 556,631 C 534,621 514,616 488,611 C 471,608 459,607 446,607 C 425,607 410,616 410,628 C 410,638 417,644 428,648 C 447,657 460,663 472,674 L 472,735 L 362,740 L 362,734 C 362,720 363,706 364,691 C 365,675 361,668 340,660 C 323,654 305,649 289,647 C 324,618 355,586 380,555 C 391,542 394,533 394,524 C 394,513 382,504 361,495 L 394,489 C 465,477 535,462 596,445 Z M 361,790 L 472,786 L 473,855 L 361,859 Z"
     id="path1" />
  <path
     d="M 555,379 C 571,389 590,392 602,380 C 609,370 607,362 600,348 C 595,335 586,324 571,310 C 560,299 551,295 527,293 C 519,293 511,291 504,290 L 519,275 C 527,266 533,254 532,246 C 531,233 517,220 494,205 C 516,202 535,201 560,202 C 584,203 594,191 594,176 C 594,160 589,150 571,146 C 558,142 544,140 526,140 C 513,140 503,143 491,150 C 479,158 477,158 459,159 C 440,161 432,162 411,161 C 394,161 384,160 372,159 L 360,153 C 348,150 331,148 314,148 C 301,148 292,150 280,158 C 270,162 265,165 246,167 C 229,168 233,169 214,169 C 188,169 170,166 146,161 C 128,158 115,178 132,189 C 145,199 158,214 172,221 C 182,227 187,230 193,230 C 201,230 209,228 221,222 C 226,220 231,218 238,217 C 244,229 242,238 232,251 C 211,284 163,324 112,355 C 90,370 110,400 137,387 C 187,369 238,340 282,306 L 325,350 C 308,362 290,374 269,387 C 246,405 268,430 293,420 C 362,393 416,364 467,323 Z M 349,209 C 356,210 362,208 367,207 L 377,213 C 387,219 394,222 400,222 C 408,222 415,221 428,216 C 434,228 432,239 422,254 C 408,273 393,291 374,309 C 365,298 358,294 344,290 C 333,286 323,284 315,279 L 325,269 C 336,260 340,248 339,241 C 337,233 329,221 313,209 C 323,208 334,209 349,209 Z"
     id="path2" />
  <path
     d="M 888,161 C 888,149 889,138 892,119 C 893,111 895,99 895,94 C 895,78 890,72 866,59 C 840,45 809,33 778,26 C 761,22 746,20 734,20 C 711,20 695,31 695,41 C 695,51 701,57 713,62 C 736,74 768,92 784,107 L 785,485 C 786,581 797,603 819,603 C 841,603 854,584 864,553 C 876,517 883,469 884,395 Z"
     id="path3" />
  <path
     d="M 735,220 C 735,208 736,198 738,178 C 739,170 740,158 740,153 C 740,137 736,129 714,118 C 687,105 661,95 638,89 C 619,85 604,83 592,83 C 567,83 553,93 553,104 C 553,115 559,120 569,125 C 594,136 622,152 642,167 L 644,455 C 644,468 644,479 645,489 C 615,494 586,497 561,500 C 535,503 506,503 482,502 C 460,500 454,525 471,536 C 488,546 506,558 521,565 C 541,575 549,575 559,575 C 568,574 574,571 583,564 C 591,558 598,554 607,551 L 649,540 C 654,566 664,573 678,573 C 698,573 711,554 720,523 C 729,487 734,439 734,375 Z"
     id="path4" />
  <path
     d="M 712,687 C 686,767 636,837 567,912 C 545,938 574,971 603,949 C 657,906 712,858 757,804 L 857,926 C 875,947 896,953 913,941 C 926,933 928,921 926,901 C 922,881 914,856 902,836 C 892,814 881,807 854,798 C 828,787 806,776 790,760 C 804,739 816,717 826,694 C 838,668 836,658 813,644 C 790,630 760,616 729,607 C 716,603 699,599 684,599 C 665,599 653,605 653,616 C 653,624 656,629 664,634 C 678,642 690,650 700,658 C 713,667 717,673 712,687 Z"
     id="path5" />
</svg>
